<?xml version="1.0" encoding="UTF-8" standalone="no"?>
<!-- Created with Inkscape (http://www.inkscape.org/) -->

<svg
   xmlns:dc="http://purl.org/dc/elements/1.1/"
   xmlns:cc="http://creativecommons.org/ns#"
   xmlns:rdf="http://www.w3.org/1999/02/22-rdf-syntax-ns#"
   xmlns:svg="http://www.w3.org/2000/svg"
   xmlns="http://www.w3.org/2000/svg"
   xmlns:sodipodi="http://sodipodi.sourceforge.net/DTD/sodipodi-0.dtd"
   xmlns:inkscape="http://www.inkscape.org/namespaces/inkscape"
   version="1.1"
   id="svg2"
   width="360.74988"
   height="413.03119"
   viewBox="0 0 360.74988 413.03119"
   sodipodi:docname="DIRISI final.svg"
   inkscape:version="0.92.4 (5da689c313, 2019-01-14)">
  <metadata
     id="metadata8">
    <rdf:RDF>
      <cc:Work
         rdf:about="">
        <dc:format>image/svg+xml</dc:format>
        <dc:type
           rdf:resource="http://purl.org/dc/dcmitype/StillImage" />
        <dc:title></dc:title>
      </cc:Work>
    </rdf:RDF>
  </metadata>
  <defs
     id="defs6" />
  <sodipodi:namedview
     pagecolor="#ffffff"
     bordercolor="#666666"
     borderopacity="1"
     objecttolerance="10"
     gridtolerance="10"
     guidetolerance="10"
     inkscape:pageopacity="0"
     inkscape:pageshadow="2"
     inkscape:window-width="1920"
     inkscape:window-height="1001"
     id="namedview4"
     showgrid="false"
     inkscape:pagecheckerboard="true"
     inkscape:object-paths="true"
     inkscape:snap-intersection-paths="true"
     inkscape:snap-smooth-nodes="true"
     inkscape:snap-midpoints="true"
     inkscape:zoom="0.80487398"
     inkscape:cx="408.56427"
     inkscape:cy="121.21419"
     inkscape:window-x="-9"
     inkscape:window-y="-9"
     inkscape:window-maximized="1"
     inkscape:current-layer="svg2"
     inkscape:snap-nodes="true"
     fit-margin-top="0"
     fit-margin-left="0"
     fit-margin-right="0"
     fit-margin-bottom="0" />
  <g
     id="g2391"
     transform="translate(-469.25501,65.557045)">
    <g
       id="g2329">
      <circle
         style="opacity:1;fill:#2c75b8;fill-opacity:1;stroke:none;stroke-width:2.4666667;stroke-linecap:round;stroke-linejoin:miter;stroke-miterlimit:4;stroke-dasharray:none;stroke-dashoffset:0;stroke-opacity:1"
         id="path821-3-9-0-2-48"
         cx="613.89429"
         cy="51.836845"
         r="8.6193619" />
    </g>
    <g
       transform="translate(71.471313)"
       id="g2337">
      <circle
         r="8.6193619"
         cy="51.836845"
         cx="613.89429"
         id="circle2331"
         style="opacity:1;fill:#2c75b8;fill-opacity:1;stroke:none;stroke-width:2.4666667;stroke-linecap:round;stroke-linejoin:miter;stroke-miterlimit:4;stroke-dasharray:none;stroke-dashoffset:0;stroke-opacity:1" />
    </g>
    <circle
       r="8.6193619"
       cy="299.01718"
       cx="711.09845"
       id="path821-3-9-0-2-4"
       style="opacity:1;fill:#2c75b8;fill-opacity:1;stroke:none;stroke-width:2.4666667;stroke-linecap:round;stroke-linejoin:miter;stroke-miterlimit:4;stroke-dasharray:none;stroke-dashoffset:0;stroke-opacity:1" />
    <circle
       r="8.6193619"
       cy="137.6496"
       cx="805.8656"
       id="path821-3-9-0-2-7"
       style="opacity:1;fill:#2c75b8;fill-opacity:1;stroke:none;stroke-width:2.4666667;stroke-linecap:round;stroke-linejoin:miter;stroke-miterlimit:4;stroke-dasharray:none;stroke-dashoffset:0;stroke-opacity:1" />
    <circle
       r="8.6193619"
       cy="27.772137"
       cx="770.68927"
       id="path821-3-9-0-2-6"
       style="opacity:1;fill:#2c75b8;fill-opacity:1;stroke:none;stroke-width:2.4666667;stroke-linecap:round;stroke-linejoin:miter;stroke-miterlimit:4;stroke-dasharray:none;stroke-dashoffset:0;stroke-opacity:1" />
    <path
       sodipodi:nodetypes="cccc"
       inkscape:connector-curvature="0"
       id="path823-7"
       d="M 636.54889,-59.923306 534.34456,64.34738 486.52894,39.53669 Z"
       style="fill:none;stroke:#2c75b8;stroke-width:3;stroke-linecap:butt;stroke-linejoin:miter;stroke-miterlimit:4;stroke-dasharray:none;stroke-opacity:1" />
    <path
       sodipodi:nodetypes="cccc"
       inkscape:connector-curvature="0"
       id="path885-5"
       d="m 535.35717,82.79842 103.78977,194.314 -156.23563,-29.97364 z"
       style="fill:none;stroke:#2c75b8;stroke-width:3;stroke-linecap:butt;stroke-linejoin:miter;stroke-miterlimit:4;stroke-dasharray:none;stroke-opacity:1" />
    <path
       sodipodi:nodetypes="cccccc"
       inkscape:connector-curvature="0"
       id="path887-5"
       d="m 471.72943,53.39727 13.04552,-6.22157 48.37714,29.5948 -54.09618,172.17984 -8.29504,-2.08813 z"
       style="fill:none;stroke:#2c75b8;stroke-width:3;stroke-linecap:butt;stroke-linejoin:miter;stroke-miterlimit:4;stroke-dasharray:none;stroke-opacity:1" />
    <path
       sodipodi:nodetypes="cccccc"
       inkscape:connector-curvature="0"
       id="path1049-9"
       d="m 478.79576,261.11613 3.41668,-9.62884 167.41751,35.40927 v 49.69722 l -10.94892,9.08528 z"
       style="fill:none;stroke:#2c75b8;stroke-width:3;stroke-linecap:butt;stroke-linejoin:miter;stroke-miterlimit:4;stroke-dasharray:none;stroke-opacity:1" />
    <path
       style="fill:none;stroke:#2c75b8;stroke-width:3;stroke-linecap:butt;stroke-linejoin:miter;stroke-miterlimit:4;stroke-dasharray:none;stroke-opacity:1"
       d="M 662.71101,-59.923306 764.91534,64.34738 812.73096,39.53669 Z"
       id="path1198"
       inkscape:connector-curvature="0"
       sodipodi:nodetypes="cccc" />
    <path
       style="fill:none;stroke:#00ff00;stroke-width:2;stroke-linecap:butt;stroke-linejoin:miter;stroke-miterlimit:4;stroke-dasharray:none;stroke-opacity:1"
       d="m 649.62995,80.34249 h 110.1104 l -110.1104,199.25479"
       id="path1220"
       inkscape:connector-curvature="0" />
    <path
       style="fill:none;stroke:#2c75b8;stroke-width:3;stroke-linecap:butt;stroke-linejoin:miter;stroke-miterlimit:4;stroke-dasharray:none;stroke-opacity:1"
       d="m 763.90273,82.79842 -103.78977,194.314 156.23563,-29.97364 z"
       id="path1222"
       inkscape:connector-curvature="0"
       sodipodi:nodetypes="cccc" />
    <path
       style="fill:none;stroke:#2c75b8;stroke-width:3;stroke-linecap:butt;stroke-linejoin:miter;stroke-miterlimit:4;stroke-dasharray:none;stroke-opacity:1"
       d="m 827.53047,53.39727 -13.04552,-6.22157 -48.37714,29.5948 54.09618,172.17984 8.29504,-2.08813 z"
       id="path1224"
       inkscape:connector-curvature="0"
       sodipodi:nodetypes="cccccc" />
    <path
       style="fill:none;stroke:#2c75b8;stroke-width:3;stroke-linecap:butt;stroke-linejoin:miter;stroke-miterlimit:4;stroke-dasharray:none;stroke-opacity:1"
       d="m 820.46414,261.11613 -3.41668,-9.62884 -167.41751,35.40927 v 49.69722 l 10.94892,9.08528 z"
       id="path1230"
       inkscape:connector-curvature="0"
       sodipodi:nodetypes="cccccc" />
    <circle
       r="8.6193619"
       cy="113.73281"
       cx="649.62994"
       id="path821-3-9-0-2-1"
       style="opacity:1;fill:#2c75b8;fill-opacity:1;stroke:none;stroke-width:2.4666667;stroke-linecap:round;stroke-linejoin:miter;stroke-miterlimit:4;stroke-dasharray:none;stroke-dashoffset:0;stroke-opacity:1" />
    <circle
       r="8.6193619"
       cy="93.100822"
       cx="613.89429"
       id="path821-3-9-0-2-0"
       style="opacity:1;fill:#2c75b8;fill-opacity:1;stroke:none;stroke-width:2.4666667;stroke-linecap:round;stroke-linejoin:miter;stroke-miterlimit:4;stroke-dasharray:none;stroke-dashoffset:0;stroke-opacity:1" />
    <circle
       r="8.6193619"
       cy="31.204855"
       cx="649.62994"
       id="path821-3-9-0-2-46"
       style="opacity:1;fill:#2c75b8;fill-opacity:1;stroke:none;stroke-width:2.4666667;stroke-linecap:round;stroke-linejoin:miter;stroke-miterlimit:4;stroke-dasharray:none;stroke-dashoffset:0;stroke-opacity:1" />
    <circle
       r="8.6193619"
       cy="93.100822"
       cx="685.3656"
       id="path821-3-9-0-2-07"
       style="opacity:1;fill:#2c75b8;fill-opacity:1;stroke:none;stroke-width:2.4666667;stroke-linecap:round;stroke-linejoin:miter;stroke-miterlimit:4;stroke-dasharray:none;stroke-dashoffset:0;stroke-opacity:1" />
    <path
       transform="scale(-1,1)"
       sodipodi:type="star"
       style="opacity:1;fill:none;fill-opacity:1;stroke:#2c75b8;stroke-width:3;stroke-linecap:butt;stroke-linejoin:miter;stroke-miterlimit:4;stroke-dasharray:none;stroke-dashoffset:0;stroke-opacity:1"
       id="path1232"
       sodipodi:sides="6"
       sodipodi:cx="-649.62994"
       sodipodi:cy="72.468834"
       sodipodi:r1="41.263981"
       sodipodi:r2="35.735661"
       sodipodi:arg1="-0.52359878"
       sodipodi:arg2="0"
       inkscape:flatsided="true"
       inkscape:rounded="0"
       inkscape:randomized="0"
       d="m -613.89429,51.836843 0,41.263981 -35.73565,20.631986 -35.73566,-20.631985 0,-41.263981 35.73566,-20.631991 z" />
    <path
       inkscape:connector-curvature="0"
       id="path1280"
       d="M 649.62995,-63.157828 539.39611,74.45049 h 220.46768 z"
       style="fill:none;stroke:#2c75b8;stroke-width:3;stroke-linecap:butt;stroke-linejoin:miter;stroke-miterlimit:4;stroke-dasharray:none;stroke-opacity:1" />
    <path
       inkscape:connector-curvature="0"
       id="path1282"
       d="M 539.51955,80.34249 649.62995,279.59728 759.74035,80.34249 Z"
       style="fill:none;stroke:#2c75b8;stroke-width:3;stroke-linecap:butt;stroke-linejoin:miter;stroke-miterlimit:4;stroke-dasharray:none;stroke-opacity:1" />
    <path
       inkscape:connector-curvature="0"
       id="path893-9"
       d="m 601.01985,88.80654 -26.01339,-20.3448 1.63069,13.43378 -31.8977,-30.18734 -1.8585,2.25976 -8.09817,-17.11052 18.71411,6.44511 -2.87312,3.33903 14.44325,13.74439 -0.3106,-9.39589 43.1102,29.35243 h -6.36935 z"
       style="fill:#2c75b8;fill-opacity:1;stroke:none;stroke-width:1px;stroke-linecap:butt;stroke-linejoin:miter;stroke-opacity:1" />
    <path
       style="fill:#2c75b8;fill-opacity:1;stroke:none;stroke-width:1px;stroke-linecap:butt;stroke-linejoin:miter;stroke-opacity:1"
       d="m 698.24005,88.80654 26.01339,-20.3448 -1.63069,13.43378 31.8977,-30.18734 1.8585,2.25976 8.09817,-17.11052 -18.71411,6.44511 2.87312,3.33903 -14.44325,13.74439 0.3106,-9.39589 -43.1102,29.35243 h 6.36935 z"
       id="path1228"
       inkscape:connector-curvature="0" />
    <circle
       r="8.6193619"
       cy="137.6496"
       cx="493.39432"
       id="path821-3-9"
       style="opacity:1;fill:#2c75b8;fill-opacity:1;stroke:none;stroke-width:2.4666667;stroke-linecap:round;stroke-linejoin:miter;stroke-miterlimit:4;stroke-dasharray:none;stroke-dashoffset:0;stroke-opacity:1" />
    <circle
       r="8.6193619"
       cy="299.01718"
       cx="588.16144"
       id="path821-3-9-0"
       style="opacity:1;fill:#2c75b8;fill-opacity:1;stroke:none;stroke-width:2.4666667;stroke-linecap:round;stroke-linejoin:miter;stroke-miterlimit:4;stroke-dasharray:none;stroke-dashoffset:0;stroke-opacity:1" />
    <circle
       r="8.6193619"
       cy="27.772137"
       cx="528.57062"
       id="path821-3-9-0-2"
       style="opacity:1;fill:#2c75b8;fill-opacity:1;stroke:none;stroke-width:2.4666667;stroke-linecap:round;stroke-linejoin:miter;stroke-miterlimit:4;stroke-dasharray:none;stroke-dashoffset:0;stroke-opacity:1" />
    <circle
       r="8.6193619"
       cy="-19.517874"
       cx="649.62994"
       id="path821-3-9-0-2-9"
       style="opacity:1;fill:#2c75b8;fill-opacity:1;stroke:none;stroke-width:2.4666667;stroke-linecap:round;stroke-linejoin:miter;stroke-miterlimit:4;stroke-dasharray:none;stroke-dashoffset:0;stroke-opacity:1" />
    <path
       inkscape:connector-curvature="0"
       id="path1473"
       d="M 588.16144,299.01718 493.39432,137.6496 528.57062,27.77214 649.62995,-19.51787 770.68927,27.77214 805.8656,137.6496 711.09845,299.01718"
       style="fill:none;stroke:#2c75b8;stroke-width:3;stroke-linecap:butt;stroke-linejoin:miter;stroke-miterlimit:4;stroke-dasharray:none;stroke-opacity:1" />
    <path
       sodipodi:nodetypes="cc"
       inkscape:connector-curvature="0"
       id="path1742"
       d="m 528.57062,27.77214 85.32367,24.064702"
       style="fill:none;stroke:#2c75b8;stroke-width:3;stroke-linecap:butt;stroke-linejoin:miter;stroke-miterlimit:4;stroke-dasharray:none;stroke-opacity:1" />
    <path
       sodipodi:nodetypes="cc"
       inkscape:connector-curvature="0"
       id="path1768"
       d="M 770.68927,27.77214 685.3656,51.812553"
       style="fill:none;stroke:#2c75b8;stroke-width:3;stroke-linecap:butt;stroke-linejoin:miter;stroke-miterlimit:4;stroke-dasharray:none;stroke-opacity:1" />
    <path
       sodipodi:nodetypes="ccccccccccccc"
       inkscape:connector-curvature="0"
       id="path893-5"
       d="m 698.24003,88.80654 26.01339,-20.3448 -0.95493,12.66449 31.17436,-29.4759 1.89588,2.30521 8.10837,-17.09812 -16.60607,6.76573 1.89589,2.30521 -15.57406,14.45759 0.74987,-9.94497 -43.54947,29.90151 h 6.36935 z"
       style="fill:#2c75b8;fill-opacity:1;stroke:none;stroke-width:1px;stroke-linecap:butt;stroke-linejoin:miter;stroke-opacity:1" />
    <path
       sodipodi:nodetypes="cccccsccccccc"
       inkscape:connector-curvature="0"
       id="path1841-4"
       d="m 739.43793,99.92789 2.26094,13.06227 -35.86476,-27.28349 -0.43926,7.46751 -8.67549,2.47087 c 0,0 58.97139,41.84004 58.97139,41.40078 0,-0.43927 -1.15307,-9.16968 -1.15307,-9.16968 l 22.45745,16.85682 -4.94174,4.39266 21.96328,4.50247 -7.82338,-18.02683 -3.46026,3.68005 z"
       style="fill:#2c75b8;fill-opacity:1;stroke:none;stroke-width:1px;stroke-linecap:butt;stroke-linejoin:miter;stroke-opacity:1" />
    <path
       sodipodi:nodetypes="ccccccccccccc"
       inkscape:connector-curvature="0"
       id="path893-4"
       d="m 601.01985,88.806542 -26.01339,-20.3448 0.95493,12.66449 -31.17435,-29.4759 -1.89589,2.30521 -8.10837,-17.09812 16.60608,6.76573 -1.89589,2.30521 15.57406,14.45759 -0.74988,-9.94497 43.54947,29.90151 h -6.36935 z"
       style="fill:#2c75b8;fill-opacity:1;stroke:none;stroke-width:1px;stroke-linecap:butt;stroke-linejoin:miter;stroke-opacity:1" />
    <path
       sodipodi:nodetypes="cccccsccccccc"
       inkscape:connector-curvature="0"
       id="path1841-48"
       d="m 559.82196,99.927892 -2.26095,13.062268 35.86476,-27.283488 0.43926,7.46751 8.67549,2.47087 c 0,0 -58.97139,41.840038 -58.97139,41.400778 0,-0.43927 1.15308,-9.16968 1.15308,-9.16968 l -22.45745,16.85682 4.94173,4.39266 -21.96327,4.50247 7.82337,-18.02683 3.46027,3.68005 z"
       style="fill:#2c75b8;fill-opacity:1;stroke:none;stroke-width:1px;stroke-linecap:butt;stroke-linejoin:miter;stroke-opacity:1" />
    <g
       style="fill:#2c75b8;fill-opacity:1"
       id="g2267">
      <path
         style="color:#000000;font-style:normal;font-variant:normal;font-weight:normal;font-stretch:normal;font-size:medium;line-height:normal;font-family:sans-serif;font-variant-ligatures:normal;font-variant-position:normal;font-variant-caps:normal;font-variant-numeric:normal;font-variant-alternates:normal;font-feature-settings:normal;text-indent:0;text-align:start;text-decoration:none;text-decoration-line:none;text-decoration-style:solid;text-decoration-color:#000000;letter-spacing:normal;word-spacing:normal;text-transform:none;writing-mode:lr-tb;direction:ltr;text-orientation:mixed;dominant-baseline:auto;baseline-shift:baseline;text-anchor:start;white-space:normal;shape-padding:0;clip-rule:nonzero;display:inline;overflow:visible;visibility:visible;opacity:1;isolation:auto;mix-blend-mode:normal;color-interpolation:sRGB;color-interpolation-filters:linearRGB;solid-color:#000000;solid-opacity:1;vector-effect:none;fill:#2c75b8;fill-opacity:1;fill-rule:nonzero;stroke:none;stroke-width:14;stroke-linecap:butt;stroke-linejoin:miter;stroke-miterlimit:4;stroke-dasharray:none;stroke-dashoffset:0;stroke-opacity:1;color-rendering:auto;image-rendering:auto;shape-rendering:auto;text-rendering:auto;enable-background:accumulate"
         d="m 524.60938,186.33984 9.9414,14 h 6.94727 l 7.30273,7.45118 h 4.65234 l 7.31836,7.46679 h 3.10157 l 6.78125,6.91992 h 35.94531 c 8.64773,14.81226 24.70713,24.81055 43.03125,24.81055 18.32437,0 34.38418,-9.99795 43.03125,-24.81055 h 35.94336 l 6.78125,-6.91992 h 3.10156 l 7.31836,-7.46679 h 4.65234 l 7.30274,-7.45118 h 6.94726 l 9.94141,-14 h -76.41601 -5.91016 -8.53906 c 1.07404,3.41583 1.65625,7.05516 1.65625,10.83789 0,19.86058 -15.94998,35.81055 -35.81055,35.81055 -19.86057,0 -35.8125,-15.94997 -35.8125,-35.81055 0,-3.78273 0.58209,-7.42206 1.65625,-10.83789 h -8.53906 -5.91016 z m 21.08984,14 h 54.23047 c 0.0951,1.50307 0.26372,2.98648 0.49023,4.45118 H 550.0625 Z m 153.63086,0 h 54.23047 l -4.36328,4.45118 h -50.35743 c 0.2265,-1.4647 0.39515,-2.94811 0.49024,-4.45118 z m -141.67578,7.45118 h 43.32422 c 0.33135,1.5156 0.7307,3.00547 1.19726,4.46679 h -40.14453 z m 140.62695,0 h 43.32422 l -4.37695,4.46679 h -40.14454 c 0.46653,-1.46132 0.86594,-2.95119 1.19727,-4.46679 z m -130.20703,7.46679 H 603.25 c 0.52335,1.33516 1.10176,2.64317 1.73438,3.91992 h -33.06836 z m 127.93555,0 h 35.17578 l -3.8418,3.91992 h -33.06641 c 0.63257,-1.27675 1.20911,-2.58476 1.73243,-3.91992 z"
         id="path2093-4"
         inkscape:connector-curvature="0" />
      <path
         style="opacity:1;fill:#2c75b8;fill-opacity:1;stroke:none;stroke-width:1px;stroke-linecap:butt;stroke-linejoin:miter;stroke-opacity:1"
         d="m 649.63086,124.88672 -6.74414,8.30469 1.24609,145.08593 c 0,1.88844 -0.6476,4.34194 -2.56836,4.84766 -3.08199,0.78484 -7.98323,-0.68991 -11.25781,-2.0625 a 6.4047279,6.4047279 0 0 0 -6.30273,-5.30078 6.4047279,6.4047279 0 0 0 -6.4043,6.4043 6.4047279,6.4047279 0 0 0 6.4043,6.40429 6.4047279,6.4047279 0 0 0 1.96679,-0.31445 l 16.96485,8.55078 a 9.8689365,28.37459 0 0 0 -1.83985,6.61719 9.8689365,28.37459 0 0 0 -0.43164,2.41601 9.8689365,28.37459 0 0 0 -0.0254,0.14649 9.8689365,28.37459 0 0 0 -0.3164,2.29687 9.8689365,28.37459 0 0 0 -0.0508,0.40625 9.8689365,28.37459 0 0 0 -0.2246,2.29297 9.8689365,28.37459 0 0 0 -0.041,0.44531 9.8689365,28.37459 0 0 0 -0.12695,2.03321 9.8689365,28.37459 0 0 0 -0.0449,0.89062 9.8689365,28.37459 0 0 0 -0.0449,1.69532 9.8689365,28.37459 0 0 0 -0.0273,1.57421 9.8689365,28.37459 0 0 0 0.043,2.45118 9.8689365,28.37459 0 0 0 0.0527,1.28125 9.8689365,28.37459 0 0 0 0.082,1.54492 9.8689365,28.37459 0 0 0 0.0957,1.22656 9.8689365,28.37459 0 0 0 0.13476,1.51562 9.8689365,28.37459 0 0 0 0.14063,1.21094 9.8689365,28.37459 0 0 0 0.1875,1.47266 9.8689365,28.37459 0 0 0 0.17187,1.11523 9.8689365,28.37459 0 0 0 0.24805,1.47657 9.8689365,28.37459 0 0 0 0.21289,1.06445 9.8689365,28.37459 0 0 0 0.28516,1.33594 9.8689365,28.37459 0 0 0 0.26171,1.04882 9.8689365,28.37459 0 0 0 0.32227,1.22461 9.8689365,28.37459 0 0 0 0.32422,1.0625 9.8689365,28.37459 0 0 0 0.32422,0.99805 9.8689365,28.37459 0 0 0 0.37109,0.99414 9.8689365,28.37459 0 0 0 0.375,0.94531 9.8689365,28.37459 0 0 0 0.36328,0.79688 9.8689365,28.37459 0 0 0 0.43164,0.88476 9.8689365,28.37459 0 0 0 0.39844,0.70118 9.8689365,28.37459 0 0 0 0.44531,0.73632 9.8689365,28.37459 0 0 0 0.4336,0.60157 9.8689365,28.37459 0 0 0 0.45508,0.58789 9.8689365,28.37459 0 0 0 0.46484,0.48828 9.8689365,28.37459 0 0 0 0.46484,0.44336 9.8689365,28.37459 0 0 0 0.49414,0.36328 9.8689365,28.37459 0 0 0 0.45899,0.29492 9.8689365,28.37459 0 0 0 0.51172,0.22266 9.8689365,28.37459 0 0 0 0.46484,0.16211 9.8689365,28.37459 0 0 0 0.84961,0.12304 9.8689365,28.37459 0 0 0 0.83789,-0.12109 9.8689365,28.37459 0 0 0 0.5,-0.17578 9.8689365,28.37459 0 0 0 0.47266,-0.20508 9.8689365,28.37459 0 0 0 0.49609,-0.32031 9.8689365,28.37459 0 0 0 0.46875,-0.34375 9.8689365,28.37459 0 0 0 0.47461,-0.45313 9.8689365,28.37459 0 0 0 0.45117,-0.47461 9.8689365,28.37459 0 0 0 0.45117,-0.57812 9.8689365,28.37459 0 0 0 0.46094,-0.64258 9.8689365,28.37459 0 0 0 0.38281,-0.62891 9.8689365,28.37459 0 0 0 0.46289,-0.81445 9.8689365,28.37459 0 0 0 0.38477,-0.79687 9.8689365,28.37459 0 0 0 0.39648,-0.86524 9.8689365,28.37459 0 0 0 0.36524,-0.92187 9.8689365,28.37459 0 0 0 0.375,-1.00782 9.8689365,28.37459 0 0 0 0.3164,-0.9746 9.8689365,28.37459 0 0 0 0.33789,-1.10352 9.8689365,28.37459 0 0 0 0.28711,-1.08398 9.8689365,28.37459 0 0 0 0.31055,-1.25 9.8689365,28.37459 0 0 0 0.22266,-1.04493 9.8689365,28.37459 0 0 0 0.27148,-1.35937 9.8689365,28.37459 0 0 0 0.20117,-1.19141 9.8689365,28.37459 0 0 0 0.2168,-1.40429 9.8689365,28.37459 0 0 0 0.14844,-1.17188 9.8689365,28.37459 0 0 0 0.17578,-1.51172 9.8689365,28.37459 0 0 0 0.10742,-1.21094 9.8689365,28.37459 0 0 0 0.11914,-1.51757 9.8689365,28.37459 0 0 0 0.0684,-1.32422 9.8689365,28.37459 0 0 0 0.0625,-1.5 9.8689365,28.37459 0 0 0 0.041,-2.37696 9.8689365,28.37459 0 0 0 -0.0449,-2.52343 9.8689365,28.37459 0 0 0 -0.043,-1.02149 9.8689365,28.37459 0 0 0 -0.0957,-1.81055 9.8689365,28.37459 0 0 0 -0.0762,-0.96289 9.8689365,28.37459 0 0 0 -0.1582,-1.77539 9.8689365,28.37459 0 0 0 -0.10547,-0.92187 9.8689365,28.37459 0 0 0 -0.23438,-1.82617 9.8689365,28.37459 0 0 0 -0.0996,-0.64258 9.8689365,28.37459 0 0 0 -0.32812,-1.95508 9.8689365,28.37459 0 0 0 -0.10352,-0.51758 9.8689365,28.37459 0 0 0 -0.41796,-1.95312 9.8689365,28.37459 0 0 0 -0.0801,-0.31836 9.8689365,28.37459 0 0 0 -0.52539,-1.98633 9.8689365,28.37459 0 0 0 -0.0566,-0.18164 9.8689365,28.37459 0 0 0 -0.6211,-1.91016 9.8689365,28.37459 0 0 0 -0.18359,-0.50781 l 16.96875,-8.55273 a 6.4047279,6.4047279 0 0 0 1.96289,0.3164 6.4047279,6.4047279 0 0 0 6.4043,-6.40429 6.4047279,6.4047279 0 0 0 -6.4043,-6.4043 6.4047279,6.4047279 0 0 0 -6.30664,5.30273 c -3.27459,1.37213 -8.17314,2.84508 -11.25391,2.06055 -1.92076,-0.50572 -2.56836,-2.95922 -2.56836,-4.84766 l 1.2461,-145.08593 z"
         id="path2095-7"
         inkscape:connector-curvature="0" />
      <path
         inkscape:connector-curvature="0"
         style="color:#000000;font-style:normal;font-variant:normal;font-weight:normal;font-stretch:normal;font-size:medium;line-height:normal;font-family:sans-serif;font-variant-ligatures:normal;font-variant-position:normal;font-variant-caps:normal;font-variant-numeric:normal;font-variant-alternates:normal;font-feature-settings:normal;text-indent:0;text-align:start;text-decoration:none;text-decoration-line:none;text-decoration-style:solid;text-decoration-color:#000000;letter-spacing:normal;word-spacing:normal;text-transform:none;writing-mode:lr-tb;direction:ltr;text-orientation:mixed;dominant-baseline:auto;baseline-shift:baseline;text-anchor:start;white-space:normal;shape-padding:0;clip-rule:nonzero;display:inline;overflow:visible;visibility:visible;opacity:1;isolation:auto;mix-blend-mode:normal;color-interpolation:sRGB;color-interpolation-filters:linearRGB;solid-color:#000000;solid-opacity:1;vector-effect:none;fill:#2c75b8;fill-opacity:1;fill-rule:nonzero;stroke:none;stroke-width:5;stroke-linecap:butt;stroke-linejoin:miter;stroke-miterlimit:4;stroke-dasharray:none;stroke-dashoffset:0;stroke-opacity:1;color-rendering:auto;image-rendering:auto;shape-rendering:auto;text-rendering:auto;enable-background:accumulate"
         d="m 619.47633,164.68422 a 7.7263651,7.7263651 0 0 0 0,10.92701 7.7263651,7.7263651 0 0 0 8.85954,1.46807 l 1.67109,1.67109 -5.42069,5.42069 4.24265,4.24264 5.42068,-5.42069 48.55421,48.55421 c 5.77702,5.77702 7.79687,14.12751 4.30065,21.88716 -3.40875,5.61349 -7.99351,9.15481 -15.91681,7.96186 l 1.95559,-3.37533 c -5.28583,0.0662 -11.4466,-2.3572 -16.61286,-4.79921 1.57112,6.28425 3.19505,10.7996 9.26144,17.18048 l 2.19728,-3.9098 c 5.29823,3.63696 11.55832,3.40647 16.81588,1.94455 14.1746,-4.15566 15.16109,-14.16274 31.5574,-6.86668 -7.29605,-16.39632 2.71102,-17.3828 6.86668,-31.5574 1.46192,-5.25756 1.69241,-11.51765 -1.94455,-16.81588 l 3.9098,-2.19728 c -6.38088,-6.06639 -10.89623,-7.69032 -17.18048,-9.26144 2.44201,5.16626 4.86543,11.32703 4.79921,16.61286 l 3.37533,-1.95559 c 1.19295,7.9233 -2.34837,12.50806 -7.96186,15.91681 -7.75965,3.49622 -16.11014,1.47637 -21.88716,-4.30064 l -48.55421,-48.55421 5.42069,-5.42069 -4.24264,-4.24265 -5.42069,5.4207 -1.67247,-1.67247 a 7.7263651,7.7263651 0 0 0 -1.46669,-8.85817 7.7263651,7.7263651 0 0 0 -10.92701,0 z"
         id="path2215" />
      <path
         id="path2141-9"
         d="m 679.7836,164.68422 a 7.7263651,7.7263651 0 0 1 0,10.92701 7.7263651,7.7263651 0 0 1 -8.85954,1.46807 l -1.67109,1.67109 5.42069,5.42069 -4.24265,4.24264 -5.42068,-5.42069 -48.55421,48.55421 c -5.77702,5.77702 -7.79687,14.12751 -4.30065,21.88716 3.40875,5.61349 7.99351,9.15481 15.91681,7.96186 l -1.95559,-3.37533 c 5.28583,0.0662 11.4466,-2.3572 16.61286,-4.79921 -1.57112,6.28425 -3.19505,10.7996 -9.26144,17.18048 l -2.19728,-3.9098 c -5.29823,3.63696 -11.55832,3.40647 -16.81588,1.94455 -14.1746,-4.15566 -15.16109,-14.16274 -31.5574,-6.86668 7.29605,-16.39632 -2.71102,-17.3828 -6.86668,-31.5574 -1.46192,-5.25756 -1.69241,-11.51765 1.94455,-16.81588 l -3.9098,-2.19728 c 6.38088,-6.06639 10.89623,-7.69032 17.18048,-9.26144 -2.44201,5.16626 -4.86543,11.32703 -4.79921,16.61286 l -3.37533,-1.95559 c -1.19295,7.9233 2.34837,12.50806 7.96186,15.91681 7.75965,3.49622 16.11014,1.47637 21.88716,-4.30064 l 48.55421,-48.55421 -5.42069,-5.42069 4.24264,-4.24265 5.42069,5.4207 1.67247,-1.67247 a 7.7263651,7.7263651 0 0 1 1.46669,-8.85817 7.7263651,7.7263651 0 0 1 10.92701,0 z"
         style="color:#000000;font-style:normal;font-variant:normal;font-weight:normal;font-stretch:normal;font-size:medium;line-height:normal;font-family:sans-serif;font-variant-ligatures:normal;font-variant-position:normal;font-variant-caps:normal;font-variant-numeric:normal;font-variant-alternates:normal;font-feature-settings:normal;text-indent:0;text-align:start;text-decoration:none;text-decoration-line:none;text-decoration-style:solid;text-decoration-color:#000000;letter-spacing:normal;word-spacing:normal;text-transform:none;writing-mode:lr-tb;direction:ltr;text-orientation:mixed;dominant-baseline:auto;baseline-shift:baseline;text-anchor:start;white-space:normal;shape-padding:0;clip-rule:nonzero;display:inline;overflow:visible;visibility:visible;opacity:1;isolation:auto;mix-blend-mode:normal;color-interpolation:sRGB;color-interpolation-filters:linearRGB;solid-color:#000000;solid-opacity:1;vector-effect:none;fill:#2c75b8;fill-opacity:1;fill-rule:nonzero;stroke:none;stroke-width:5;stroke-linecap:butt;stroke-linejoin:miter;stroke-miterlimit:4;stroke-dasharray:none;stroke-dashoffset:0;stroke-opacity:1;color-rendering:auto;image-rendering:auto;shape-rendering:auto;text-rendering:auto;enable-background:accumulate"
         inkscape:connector-curvature="0" />
    </g>
    <path
       inkscape:connector-curvature="0"
       id="path2347"
       d="m 649.62995,-19.51787 -10e-6,50.722723"
       style="fill:none;stroke:#2c75b8;stroke-width:3;stroke-linecap:butt;stroke-linejoin:miter;stroke-miterlimit:4;stroke-dasharray:none;stroke-opacity:1" />
  </g>
</svg>
